<svg xmlns="http://www.w3.org/2000/svg" width="15.94" height="15.94" viewBox="0 0 15.94 15.94">
  <path id="ic_fluent_board_split_24_regular" d="M3,5.878A2.878,2.878,0,0,1,5.878,3H16.062A2.878,2.878,0,0,1,18.94,5.878V16.062a2.878,2.878,0,0,1-2.878,2.878H5.878A2.878,2.878,0,0,1,3,16.062Zm1.328,5.535v4.649a1.55,1.55,0,0,0,1.55,1.55h6.863v-6.2Zm8.413-1.328V4.328H5.878a1.55,1.55,0,0,0-1.55,1.55v4.206Zm4.871-1.328H14.07v4.428h3.542Zm0,5.756H14.07v3.1h1.993a1.55,1.55,0,0,0,1.55-1.55Zm0-7.085V5.878a1.55,1.55,0,0,0-1.55-1.55H14.07v3.1Z" transform="translate(-3 -3)" fill="#9a9a9a"/>
</svg>
