<svg xmlns="http://www.w3.org/2000/svg" width="17.003" height="17.707" viewBox="0 0 17.003 17.707">
  <path id="ic_fluent_settings_24_regular" d="M11.15,2.25a9.575,9.575,0,0,1,1.981.23.681.681,0,0,1,.529.589l.154,1.387a1.257,1.257,0,0,0,1.75,1.013l1.272-.558a.681.681,0,0,1,.772.158,8.892,8.892,0,0,1,2,3.443.681.681,0,0,1-.246.749l-1.128.832a1.254,1.254,0,0,0,0,2.021l1.129.831a.681.681,0,0,1,.247.75,8.9,8.9,0,0,1-2,3.443.681.681,0,0,1-.77.159l-1.278-.56a1.253,1.253,0,0,0-1.749,1.012l-.153,1.386a.681.681,0,0,1-.519.588,8.643,8.643,0,0,1-4,0,.681.681,0,0,1-.519-.588l-.153-1.384a1.255,1.255,0,0,0-1.749-1.008L5.442,17.3a.681.681,0,0,1-.771-.159,8.9,8.9,0,0,1-2-3.447.681.681,0,0,1,.247-.75l1.129-.832a1.253,1.253,0,0,0,0-2.021l-1.129-.83a.681.681,0,0,1-.246-.75,8.893,8.893,0,0,1,2-3.443.681.681,0,0,1,.772-.158l1.271.558A1.26,1.26,0,0,0,8.468,4.455l.154-1.386a.681.681,0,0,1,.529-.59,9.742,9.742,0,0,1,2-.229Zm0,1.362a8.3,8.3,0,0,0-1.23.106l-.1.887A2.621,2.621,0,0,1,6.168,6.718L5.352,6.36a7.531,7.531,0,0,0-1.224,2.1L4.853,9a2.616,2.616,0,0,1,0,4.216l-.726.534a7.542,7.542,0,0,0,1.224,2.109l.822-.361a2.617,2.617,0,0,1,3.648,2.1l.1.894a7.336,7.336,0,0,0,2.44,0l.1-.894a2.616,2.616,0,0,1,3.649-2.109l.822.36a7.533,7.533,0,0,0,1.223-2.1l-.725-.534A2.616,2.616,0,0,1,17.43,9l.723-.533a7.531,7.531,0,0,0-1.224-2.1l-.814.357a2.619,2.619,0,0,1-3.653-2.11l-.1-.886a8.162,8.162,0,0,0-1.21-.106ZM11.14,7.7A3.405,3.405,0,1,1,7.734,11.1,3.405,3.405,0,0,1,11.14,7.7Zm0,1.362A2.043,2.043,0,1,0,13.183,11.1,2.043,2.043,0,0,0,11.14,9.061Z" transform="translate(-2.639 -2.25)" fill="#9a9a9a"/>
</svg>
